<?xml version="1.0" encoding="UTF-8"?><svg id="Layer_2" xmlns="http://www.w3.org/2000/svg" viewBox="0 0 95.52 113.89"><defs><style>.cls-1{fill:#231f20;}</style></defs><g id="Layer_1-2"><path class="cls-1" d="M39.24,79.5v17.64l-18.66,16.75H0V10.14L11.17,0h23.37l21.75,33.21V16.75L74.95,0h20.57V100.96l-14.4,12.93h-19.25l-22.63-34.39ZM17.64,38.65L63.19,108.01l10.14-8.96L11.61,5,3.97,11.9V107.43l13.67-12.34V38.65Zm2.79,59.52l-13.08,11.76h11.46l13.23-11.76h-11.61Zm57.46-24.25L32.04,3.97H16.02l61.58,93.76h13.96V3.97h-13.67V73.92Zm-42.62,20.28v-20.72l-13.67-20.87v41.59h13.67Zm24.98-54.96l13.67,20.72V6.32l-13.67,12.34v20.57Zm16.17,62.46l-9.11,8.23h12.2l9.11-8.23h-12.2Z"/></g></svg>