<?xml version="1.0" encoding="UTF-8"?><svg id="Layer_2" xmlns="http://www.w3.org/2000/svg" viewBox="0 0 490.53 244.8"><defs><style>.cls-1{fill:#231f20;}</style></defs><g id="Layer_1-2"><g><g><path class="cls-1" d="M46.29,96.03v17.64l-18.66,16.75H7.05V26.67l11.17-10.14h23.37l21.75,33.21v-16.46l18.66-16.75h20.57V117.49l-14.4,12.93h-19.25l-22.63-34.39ZM24.69,55.18l45.56,69.36,10.14-8.96L18.66,21.53l-7.64,6.91V123.96l13.67-12.34V55.18Zm2.79,59.52l-13.08,11.76h11.46l13.23-11.76h-11.61Zm57.46-24.25L39.09,20.5H23.07l61.58,93.76h13.96V20.5h-13.67V90.45Zm-42.62,20.28v-20.72l-13.67-20.87v41.59h13.67Zm24.98-54.96l13.67,20.72V22.85l-13.67,12.34v20.57Zm16.17,62.46l-9.11,8.23h12.2l9.11-8.23h-12.2Z"/><path class="cls-1" d="M137.25,130.42h-20.57V33.28l18.66-16.75h31.89c22.34,0,41.29,13.52,41.29,41.29,0,15.14-5.14,26.45-14.25,33.21l28.51,25.72-15.14,13.67h-28.95l-22.78-20.57v3.82l-18.66,16.75Zm28.8-35.27h1.76c22.04,0,36.74-13.81,36.74-37.33s-15.14-37.33-37.47-37.33h-29.98l-13.23,11.76h39.97c17.49,0,27.04,9.85,27.04,25.57s-9.11,25.57-25.72,25.57h-30.86V47.98h28.36c6.17,0,10.73,3.53,10.73,9.7,0,5.73-3.67,9.99-10.58,9.99h-8.08l-13.23,11.76h23.37c14.25,0,22.04-7.94,22.04-21.6,0-12.93-7.79-21.6-23.37-21.6h-42.91V126.45h13.67v-31.3h11.76l34.68,31.3h20.13l-34.83-31.3Zm-27.77-18.22l13.67-12.34v-12.64h-13.67v24.98Zm0,47.03l13.67-12.2v-5.44l-7.94-7.2h-5.73v24.84Zm24.84-60.25c5,0,6.47-3.23,6.47-5.88,0-3.67-2.35-5.88-6.47-5.88h-7.2v11.76h7.2Zm43.5,62.16l9.85-8.96-25.86-23.37c-4.41,2.65-9.85,4.41-14.55,5l30.57,27.33Z"/><path class="cls-1" d="M210.14,16.53h94.93l18.66,16.75v18.66h-37.18v78.48h-20.57l-18.66-16.75V51.95h-18.37l-18.81-16.75V16.53Zm17.64,28.8v-10.14l-13.67-12.2v10.14l13.67,12.2Zm37.18,65.4V32.25h51.29l-12.93-11.76h-85.82l13.08,11.76h20.72V110.73h13.67Zm-33.21-62.75h15.58v-11.76h-15.58v11.76Zm34.39,66.72h-11.61l13.23,11.76h11.46l-13.08-11.76Zm16.46,9.26V50.92l-13.67-12.34V111.76l13.67,12.2Zm-10.29-87.73l12.93,11.76h34.54v-11.76h-47.47Z"/><path class="cls-1" d="M396.78,130.42v-39.24h-28.51v22.48l-18.66,16.75h-20.57V33.28l18.66-16.75h20.57V55.77h28.51v-22.48l18.66-16.75h20.57V113.67l-18.66,16.75h-20.57Zm-50.11-54.96V36.22h-13.67V126.45h13.67v-39.24h54.08v36.74l13.67-12.2V23l-13.67,12.2v40.27h-54.08Zm-10.43-43.21h11.61l13.08-11.76h-11.46l-13.23,11.76Zm14.4,36.74l13.67-12.2V23l-13.67,12.2v33.8Zm13.67,42.76v-20.57h-13.67v32.77l13.67-12.2Zm-10.43-40.27h42.91v-11.76h-29.69l-13.23,11.76Zm50.26,54.96h11.46l13.23-11.76h-11.61l-13.08,11.76Zm14.25-15.72h13.67V20.5h-13.67V110.73Z"/><path class="cls-1" d="M447.48,113.67v-18.66h19.1l19.54,16.75v18.66h-19.98l-18.66-16.75Zm3.67-12.64v10.88l13.96,12.49v-11.02l-13.96-12.34Zm3.09-2.35l13.52,12.05h11.32l-14.11-12.05h-10.73Zm14.55,28.07h13.67v-12.34h-13.67v12.34Z"/><path class="cls-1" d="M16.25,206.42c.57,2.66,3.14,6.46,10.07,6.46,4.27,0,7.03-1.43,7.03-4.85,0-4.75-5.51-4.66-15.39-6.94-7.22-1.71-14.44-4.75-14.44-15.2,0-11.4,8.27-16.72,21.56-16.72,12.45,0,20.43,4.75,22.99,13.3l-13.11,3.51c-.95-3.23-4.27-5.23-9.12-5.23-4.18,0-6.84,1.52-6.84,4.47,0,3.52,3.9,3.99,12.64,5.79,7.03,1.33,17.1,4.56,17.1,16.72s-9.79,16.72-22.33,16.72c-9.79,0-21.28-2.75-23.85-14.44l13.68-3.61Z"/><path class="cls-1" d="M85.88,184.19v39.24h-15.1v-39.24h-16.91v-13.97h48.93v13.97h-16.91Z"/><path class="cls-1" d="M161.31,197.68c0,18.71-10.45,26.79-25.37,26.79s-25.46-8.08-25.46-26.79v-27.46h15.3v28.88c0,8.27,3.61,11.59,10.26,11.59s10.26-3.33,10.26-11.59v-28.88h15.01v27.46Z"/><path class="cls-1" d="M193.23,170.22c16.91,0,29.74,9.98,29.74,26.79s-12.83,26.41-29.83,26.41h-21.75v-53.2h21.85Zm-.29,39.24c9.31,0,14.73-3.32,14.73-12.44s-5.42-12.83-14.54-12.83h-6.75v25.27h6.56Z"/><path class="cls-1" d="M230.94,170.22h15.01v53.2h-15.01v-53.2Z"/><path class="cls-1" d="M282.62,169.18c16.81,0,28.79,11.5,28.79,27.65s-11.97,27.65-28.79,27.65-28.69-11.5-28.69-27.65,11.97-27.65,28.69-27.65Zm0,41.52c8.17,0,13.49-5.61,13.49-13.87s-5.32-13.87-13.49-13.87-13.4,5.61-13.4,13.87,5.32,13.87,13.4,13.87Z"/></g><rect class="cls-1" x="329.78" y="188.47" width="145.84" height="16.07"/></g></g></svg>